<?xml version="1.0" standalone="no"?>
<!DOCTYPE svg PUBLIC "-//W3C//DTD SVG 1.1//EN" "http://www.w3.org/Graphics/SVG/1.1/DTD/svg11.dtd" >
<svg xmlns="http://www.w3.org/2000/svg">
<metadata>
This is a custom SVG webfont generated by Font Squirrel.
Copyright   : Copyright 2010 Adobe Systems Incorporated All rights reserved
Designer    : Matt Yow
Foundry     : PYRS Fontlab Ltd  Made with FontLab
</metadata>
<defs>
<font id="SatelliteItalic" horiz-adv-x="669" >
<font-face units-per-em="2048" ascent="1606" descent="-442" />
<missing-glyph horiz-adv-x="614" />
<glyph unicode=" "  horiz-adv-x="614" />
<glyph unicode="&#x09;" horiz-adv-x="614" />
<glyph unicode="&#xa0;" horiz-adv-x="614" />
<glyph unicode="!" horiz-adv-x="262" d="M2 41q2 18 17.5 32.5t33.5 14.5q20 0 32.5 -14.5t10.5 -32.5q-8 -47 -57 -47q-18 0 -28.5 13.5t-8.5 33.5zM66 389l174 1249h67l-174 -1249h-67z" />
<glyph unicode="&#x22;" horiz-adv-x="495" d="M88 1374l27 244h90l-45 -244h-72zM281 1374l22 244h92l-43 -244h-71z" />
<glyph unicode="#" horiz-adv-x="681" d="M55 961l8 53h101l33 188h-101l10 53h101l16 101h49l-18 -101h192l19 101h47l-16 -101h98l-8 -53h-101l-32 -188h100l-10 -53h-101l-16 -101h-49l18 101h-192l-19 -101h-47l17 101h-99zM211 1014h192l35 188h-192z" />
<glyph unicode="$" horiz-adv-x="874" d="M2 367l55 32q82 -133 271 -147l78 551q-66 16 -104 27.5t-89 37t-76.5 55t-40 80t-6.5 113.5q20 150 135 230.5t269 85.5l20 145h61l-20 -145q217 -20 307 -193l-53 -33q-78 147 -262 164l-74 -522q80 -18 129 -35.5t101.5 -51.5t72 -90.5t8.5 -133.5q-20 -150 -136 -243 t-267 -101l-23 -173h-61l22 173q-217 16 -317 174zM147 1116q-8 -61 8.5 -105t60.5 -72t86 -43t112 -34l71 510q-131 -4 -226.5 -67.5t-111.5 -188.5zM389 252q129 8 224.5 83t113.5 202q16 113 -52.5 165t-209.5 86z" />
<glyph unicode="%" horiz-adv-x="1374" d="M106 6l1080 1628h80l-1078 -1628h-82zM281 1427q0 84 60 145.5t144 61.5t145.5 -61.5t61.5 -145.5t-61.5 -143t-145.5 -59t-144 59t-60 143zM340 1427.5q0 -57.5 44 -100.5t101.5 -43t101.5 43t44 100q0 59 -43 102.5t-103 43.5q-57 0 -101 -44t-44 -101.5zM682 211 q0 84 60.5 144.5t144.5 60.5t145.5 -60.5t61.5 -144.5t-61.5 -144.5t-145.5 -60.5t-144.5 60.5t-60.5 144.5zM743 211q0 -57 43 -100t101 -43q59 0 103 43t44 100t-45 101t-102.5 44t-100.5 -44t-43 -101z" />
<glyph unicode="&#x26;" horiz-adv-x="1609" d="M92 526q23 168 143.5 304.5t299.5 193.5q-78 49 -114 125t-22 160q18 131 126 225t237 94q131 0 210 -93t62 -230h-51q16 113 -56.5 190.5t-172.5 77.5q-109 0 -197 -78t-104 -186q-16 -106 49 -184t176 -81l-8 -59q-193 -4 -343.5 -137t-177 -321.5t89 -323.5 t302.5 -135q72 0 151.5 27.5t156.5 79.5t137.5 144.5t80.5 206.5h-299l8 56h416q141 0 268 108l35 -43q-145 -121 -311 -121h-60q-37 -215 -206.5 -365.5t-385.5 -150.5q-211 0 -340 151.5t-100 364.5z" />
<glyph unicode="'" horiz-adv-x="206" d="M78 1618h72l-11 -244h-57z" />
<glyph unicode="(" horiz-adv-x="632" d="M51 739q37 256 188.5 471t385.5 349l-13 -93q-195 -119 -324.5 -311t-162.5 -415.5t44 -415t239 -312.5l-13 -92q-197 133 -289 348t-55 471z" />
<glyph unicode=")" horiz-adv-x="632" d="M-33 -80l13 92q195 121 324.5 312.5t162.5 415t-44 415t-239 311.5l13 93q195 -135 288 -350.5t56 -469.5t-190 -470t-384 -349z" />
<glyph unicode="*" horiz-adv-x="706" d="M84 1364l8 53l176 8l-114 111l59 51l94 -131l33 178h57l-16 -178l127 131l43 -51l-145 -111l176 -8l-9 -53l-176 -10l113 -113l-59 -51l-91 131l-32 -176h-58l17 176l-131 -131l-43 51l147 113z" />
<glyph unicode="+" d="M74 756l8 69h192l29 199h68l-29 -199h195l-9 -69h-194l-29 -199h-67l28 199h-192z" />
<glyph unicode="," horiz-adv-x="372" d="M82 -115l123 156l80 -61l-176 -132z" />
<glyph unicode="-" d="M74 588v43h497v-43h-497z" />
<glyph unicode="." horiz-adv-x="284" d="M78 53q0 25 15.5 42.5t38 17.5t38.5 -16.5t16 -43.5q0 -23 -17 -39t-38 -16q-23 0 -38 16t-15 39z" />
<glyph unicode="/" horiz-adv-x="753" d="M51 6l531 1628h65l-532 -1628h-64z" />
<glyph unicode="0" horiz-adv-x="1380" d="M147 805q47 340 245 582.5t431 242.5q231 0 359.5 -241.5t81.5 -583.5t-244 -583.5t-430 -241.5q-154 0 -266.5 110.5t-160 301t-16.5 413.5zM211 805q-45 -315 67.5 -535.5t321.5 -220.5q211 0 384 219t218 536.5t-66.5 537t-322.5 219.5q-209 0 -383 -219.5 t-219 -536.5z" />
<glyph unicode="1" horiz-adv-x="432" d="M147 0l220 1559h-162l10 59h217l-229 -1618h-56z" />
<glyph unicode="2" horiz-adv-x="1058" d="M-14 0l10 66l864 935q61 68 80 191q20 152 -71 259.5t-242 107.5q-147 0 -268 -106.5t-148 -260.5h-57q31 180 171 303t312 123q174 0 279.5 -125t80.5 -301q-12 -94 -73 -195q-47 -76 -404 -452l-454 -477h774l-11 -68h-843z" />
<glyph unicode="3" horiz-adv-x="1245" d="M74 506h55q-20 -197 96.5 -333t304.5 -136q193 0 349.5 136t183.5 329q29 193 -87 330t-312 141l8 61q117 0 205 81t102 190q16 111 -51.5 189.5t-179.5 78.5q-109 0 -199 -78t-111 -190h-53q25 137 132.5 231t238.5 94q133 0 215 -95t63 -226q-31 -199 -223 -295 q168 -59 251 -197.5t58 -310.5q-29 -217 -205 -371.5t-393 -154.5q-213 0 -344 152.5t-104 373.5z" />
<glyph unicode="4" horiz-adv-x="1130" d="M127 780l119 838h57l-110 -780h536l111 780h57l-111 -780h201l-8 -58h-201l-110 -780h-58l111 780h-594z" />
<glyph unicode="5" horiz-adv-x="1163" d="M47 145l51 45q117 -152 318 -151q195 0 353.5 139t184.5 336q29 195 -90 335t-313 140q-199 0 -363 -151l-38 39l106 753h797l-11 -61h-737l-88 -635q174 115 342 115q217 0 350 -158t103 -377q-31 -221 -208 -377.5t-396 -156.5q-224 -1 -361 165z" />
<glyph unicode="6" horiz-adv-x="1052" d="M41 414q6 39 18.5 75.5t39 96t30.5 71.5l86 195l367 778h67l-416 -891q147 111 299 111q178 0 287 -128t82 -308q-25 -178 -170 -306t-321.5 -128t-285 128t-83.5 306zM98.5 413.5q-20.5 -155.5 72.5 -265t246.5 -109.5t279.5 109.5t147 265.5q23 156 -70.5 266.5 t-249.5 110.5q-154 0 -279.5 -111t-146 -266.5z" />
<glyph unicode="7" horiz-adv-x="974" d="M139 0l727 1550h-655l10 68h750l-764 -1618h-68z" />
<glyph unicode="8" horiz-adv-x="1159" d="M27 502q25 176 148.5 311t299.5 193q-76 45 -113.5 120.5t-23.5 167.5h-2q23 135 128 229.5t238.5 94.5t212 -94t64.5 -230h-2q-29 -193 -219 -288q162 -55 247 -191.5t60 -312.5q-31 -215 -205 -368.5t-387 -153.5q-215 0 -346 154.5t-100 367.5zM84 506 q-29 -190 89 -329.5t308 -139.5q188 0 343 137t184 328q27 193 -89 328t-309 135q-190 0 -344.5 -134.5t-181.5 -324.5zM391 1294q-16 -109 52.5 -188.5t177 -79.5t198.5 80t107 188q14 109 -54.5 188t-177 79t-199 -79t-104.5 -188z" />
<glyph unicode="9" horiz-adv-x="1087" d="M176 1192q25 174 167 300t316.5 126t279.5 -125t81 -301q-12 -90 -272 -645l-107 -226l-96 -208l-53 -113h-68l410 872q-150 -109 -295 -108q-172 0 -280 126t-83 302zM233.5 1191.5q-20.5 -151.5 70.5 -260t243 -108.5q150 0 271.5 108.5t144.5 260.5q20 152 -71 259.5 t-242.5 107.5t-273.5 -108t-142.5 -259.5z" />
<glyph unicode=":" horiz-adv-x="315" d="M63 231q2 27 22.5 45.5t49.5 18.5q25 0 41.5 -19.5t11.5 -44.5q-4 -27 -24.5 -46t-44.5 -19q-29 0 -44.5 19t-11.5 46zM158 903q4 29 25.5 47.5t47.5 18.5q25 0 40.5 -19.5t11.5 -46.5q-2 -27 -23.5 -45t-46.5 -18q-27 0 -43 17t-12 46z" />
<glyph unicode=";" horiz-adv-x="335" d="M-4 -115l125 156l78 -61l-174 -132zM180 903q2 27 23.5 46.5t50.5 19.5q25 0 40 -19.5t11 -46.5q-4 -29 -23.5 -46t-45.5 -17q-29 0 -44.5 18t-11.5 45z" />
<glyph unicode="&#x3c;" horiz-adv-x="626" d="M92 565v43l438 299v-69l-366 -252l366 -250v-70z" />
<glyph unicode="=" d="M84 582v65h487v-65h-487zM84 750v65h487v-65h-487z" />
<glyph unicode="&#x3e;" horiz-adv-x="626" d="M88 266v70l367 250l-367 250v71l440 -299v-45z" />
<glyph unicode="?" horiz-adv-x="1011" d="M150 1198q27 182 169 309t318 127t285.5 -126t85.5 -302q-23 -162 -145 -284.5t-283 -147.5l-56 -389h-67l65 455q152 2 274 106.5t142 251.5q20 150 -71 258.5t-240 108.5q-147 0 -267 -106.5t-143 -260.5h-67zM389 47.5q4 22.5 21.5 38.5t42.5 16q20 0 33.5 -15 t11.5 -36q-4 -23 -22.5 -38t-37.5 -15q-25 0 -39 13.5t-10 36z" />
<glyph unicode="@" horiz-adv-x="1077" d="M65.5 794.5q26.5 190.5 179 324.5t343 134t307.5 -134t90 -324q-20 -141 -104 -242q-119 33 -154 156q-90 -143 -235 -144q-96 0 -153.5 67.5t-43.5 162t90 162t172 67.5q111 0 182 -115l17 115h30l-32 -229q-16 -131 90 -191q68 96 80 191q23 164 -79 280.5t-265 116.5 q-162 0 -296 -117t-157 -280.5t77.5 -280.5t264.5 -117q178 0 301 129q14 -8 57 -26q-156 -164 -366 -164q-190 0 -306 134t-89.5 324.5zM338 795q-10 -78 37 -132.5t123 -54.5q78 0 140 55.5t72.5 131t-36.5 130t-123 54.5t-139.5 -54t-73.5 -130z" />
<glyph unicode="A" horiz-adv-x="1306" d="M12 0l768 1618h15l309 -1618h-66l-69 387h-711l-180 -387h-66zM287 436h665l-188 1016z" />
<glyph unicode="B" horiz-adv-x="1173" d="M10 0l230 1618h495q170 0 276 -124q87 -102 87 -238q0 -29 -4 -60q-39 -268 -289 -387q121 -37 179 -149q44 -85 44 -178q0 -30 -4 -60q-23 -174 -163 -298t-314 -124h-537zM88 70h469q145 0 261 103t136 249q5 30 5 58q0 109 -69 191q-87 103 -233 103h-469zM195 829 h448q139 0 248.5 106.5t130.5 256.5q5 30 5 59q0 110 -70 193q-87 104 -232 104h-428z" />
<glyph unicode="C" horiz-adv-x="1392" d="M68 805q31 223 169 413.5t344.5 301t432.5 110.5q195 0 405 -112l19 -15l-41 -47l-131 56q-41 17 -118 37t-144 20q-317 0 -572.5 -223.5t-300.5 -540.5q-9 -60 -8 -117q0 -243 156 -425q193 -224 509 -224q68 0 150 19.5t129 36.5l145 57l31 -50l-26 -10 q-98 -39 -149.5 -56.5t-134.5 -36.5t-153 -19q-344 0 -552 241q-169 197 -169 461q0 60 9 123z" />
<glyph unicode="D" horiz-adv-x="1431" d="M-2 0l229 1618h404q217 0 387 -108.5t252 -295.5q60 -136 59 -288q0 -57 -8 -117q-31 -219 -165 -405.5t-336 -295t-419 -108.5h-403zM63 57h347q309 0 559 220.5t295 531.5q9 60 8 117q0 237 -152 414q-188 220 -497 221h-347z" />
<glyph unicode="E" horiz-adv-x="1222" d="M25 0l229 1618h930l-8 -51h-867l-102 -725h610l-6 -51h-610l-105 -740h867l-9 -51h-929z" />
<glyph unicode="F" horiz-adv-x="1144" d="M29 0l229 1618h934l-8 -51h-871l-102 -729h614l-8 -52h-614l-111 -786h-63z" />
<glyph unicode="G" horiz-adv-x="1609" d="M109 805q47 338 323.5 581.5t612 243.5t559.5 -258l-54 -47q-207 238 -512 238q-315 0 -567 -220.5t-297 -537.5q-9 -61 -9 -118q0 -240 153 -420q189 -222 503 -222q303 0 557 215l56 397h-549l8 54h614l-67 -478q-287 -254 -629 -253q-336 0 -543 242 q-168 198 -168 460q0 60 9 123z" />
<glyph unicode="H" horiz-adv-x="1376" d="M-10 0l229 1618h64l-111 -776h971l110 776h64l-230 -1618h-63l113 791h-971l-113 -791h-63z" />
<glyph unicode="I" horiz-adv-x="415" d="M51 0l230 1618h67l-229 -1618h-68z" />
<glyph unicode="J" horiz-adv-x="1064" d="M49 256h70q29 -84 90 -138.5t145 -68.5q18 -4 62 -4q147 0 266 106.5t141 258.5l172 1220h66l-172 -1220q-25 -176 -167 -303t-316 -127q-41 0 -62 4q-92 12 -158 63q-102 78 -137 209z" />
<glyph unicode="K" horiz-adv-x="1179" d="M12 0l230 1618h63l-125 -877l819 877h78l-753 -805l626 -813h-76l-593 766l-113 -121l-92 -645h-64z" />
<glyph unicode="L" horiz-adv-x="1179" d="M10 0l230 1618h63l-219 -1552h870l-10 -66h-934z" />
<glyph unicode="M" horiz-adv-x="1601" d="M-4 0l229 1620h11l487 -1104l797 1104l12 -2l-229 -1618h-64l199 1403l-731 -1006l-449 1006l-199 -1403h-63z" />
<glyph unicode="N" horiz-adv-x="1394" d="M14 0l228 1618l63 4l772 -1497l213 1511h60l-230 -1636h-51l-782 1511l-213 -1511h-60z" />
<glyph unicode="O" horiz-adv-x="1712" d="M106 805q49 352 301 588.5t578 236.5t511 -236q146 -187 147 -447q0 -69 -11 -142q-49 -354 -302 -589.5t-578.5 -235.5t-509.5 235q-146 186 -146 446q0 69 10 144zM172 805q-10 -69 -9 -133q0 -239 132 -410q168 -217 467 -217t528.5 217t274.5 543q10 68 9 132 q0 237 -132 409q-168 217 -467 217q-297 0 -526.5 -217t-276.5 -541z" />
<glyph unicode="P" horiz-adv-x="1138" d="M10 0l230 1618h516q172 0 276 -124q86 -102 86 -238q0 -29 -4 -60q-25 -176 -165 -300t-314 -124h-453l-108 -772h-64zM193 838h452q147 0 264 105.5t140 252.5q4 28 3 54q0 113 -71 198q-88 104 -236 104h-452z" />
<glyph unicode="Q" horiz-adv-x="1732" d="M102 817q47 338 293 577.5t578 239.5q219 0 378.5 -112.5t226.5 -298.5q46 -128 46 -271q0 -66 -10 -135q-33 -231 -172 -430t-381 -321h446l-8 -66h-756q-332 0 -510 240q-141 190 -140 440q-1 66 9 137zM170 817q-9 -65 -9 -126q0 -129 41 -245q60 -170 204.5 -275 t347.5 -105q303 0 526 221t266 530q9 65 9 127q0 229 -127 404q-161 221 -463 221q-305 0 -528.5 -221.5t-266.5 -530.5z" />
<glyph unicode="R" horiz-adv-x="1171" d="M12 0l230 1618h516q170 0 273 -125q85 -103 85 -237q0 -29 -4 -60q-23 -154 -143.5 -272.5t-284.5 -147.5l272 -776h-67q-70 178 -271 774h-436l-110 -774h-60zM190 838h457q145 0 263 103t139 251q5 31 4 60q0 113 -70 197q-88 105 -235 105h-457z" />
<glyph unicode="S" horiz-adv-x="1220" d="M31 211l61 37q59 -98 170 -149.5t240 -51.5q188 0 332.5 103.5t171.5 289.5q4 25 3 49q0 71 -33 123q-44 70 -124 105t-180.5 59.5t-199.5 52t-179 67.5t-123 119q-31 57 -31 133q0 29 4 60q31 211 190 319.5t378 108.5q154 0 275.5 -63.5t187.5 -186.5l-62 -36 q-57 106 -162.5 162.5t-238.5 56.5q-125 0 -226.5 -32t-179.5 -114t-96 -206q-4 -26 -4 -50q0 -71 33 -123q43 -70 123.5 -104.5t181.5 -59.5l199 -53q99 -27 179 -66.5t123 -118.5q31 -57 32 -133q0 -29 -5 -60q-29 -215 -193.5 -341t-377.5 -126q-150 0 -275.5 58 t-193.5 171z" />
<glyph unicode="T" horiz-adv-x="1263" d="M211 1567l8 51h1079l-8 -51h-508l-221 -1567h-65l221 1567h-506z" />
<glyph unicode="U" horiz-adv-x="1337" d="M66 518l157 1112h64l-154 -1087q-5 -39 -5 -75q0 -159 101 -278q125 -145 328 -145q205 0 370 145.5t193 352.5l154 1087h65l-153 -1087q-33 -231 -220.5 -397t-418.5 -166q-227 0 -371 155q-117 127 -117 301q1 40 7 82z" />
<glyph unicode="V" horiz-adv-x="1343" d="M242 1618h67q18 -104 67.5 -354t72.5 -385q14 -84 141 -744l698 1483h68l-766 -1618h-43z" />
<glyph unicode="W" horiz-adv-x="1994" d="M176 1630h66l290 -1501l533 1124l215 -1124l711 1501h67l-809 -1706l-213 1127l-534 -1127z" />
<glyph unicode="X" horiz-adv-x="1366" d="M-6 0l649 811l-416 807h74l389 -748l600 748h78l-647 -807l420 -811h-76l-391 752l-604 -752h-76z" />
<glyph unicode="Y" horiz-adv-x="1343" d="M203 1618h76l393 -754l606 754h76l-660 -821l-112 -797h-66l113 797z" />
<glyph unicode="Z" horiz-adv-x="1372" d="M-8 0l1261 1567h-1003l8 51h1108l-1260 -1567h1004l-8 -51h-1110z" />
<glyph unicode="[" horiz-adv-x="643" d="M-39 -63l229 1630h494l-8 -58h-436l-213 -1515h436l-8 -57h-494z" />
<glyph unicode="\" horiz-adv-x="798" d="M90 1634h66l530 -1628h-63z" />
<glyph unicode="]" horiz-adv-x="643" d="M-59 -63l8 57h436l213 1515h-436l8 58h494l-230 -1630h-493z" />
<glyph unicode="^" horiz-adv-x="925" d="M150 973l299 440h45l297 -440h-70l-250 366l-252 -366h-69z" />
<glyph unicode="_" d="M84 -6h487v-51h-487v51z" />
<glyph unicode="`" horiz-adv-x="372" d="M102 1559l84 51l74 -144l-29 -26z" />
<glyph unicode="a" horiz-adv-x="1179" d="M111 453q27 190 173 325t337 135q233 0 354 -233l31 225h61l-127 -905h-61l30 225q-186 -233 -420 -233q-190 0 -298 134q-86 108 -86 252q1 37 6 75zM172 453q-4 -32 -4 -62q0 -125 75 -220q93 -118 257 -118q160 0 287.5 117t150.5 283q4 31 4 61q0 125 -77 220 q-95 118 -255 118q-164 0 -289.5 -117.5t-148.5 -281.5z" />
<glyph unicode="b" horiz-adv-x="1120" d="M47 0l227 1614h62l-129 -912q66 102 170 161t219 59q188 0 299 -138q88 -109 88 -252q0 -37 -6 -77q-27 -193 -175.5 -330t-336.5 -137q-119 0 -205 57t-123 164l-28 -209h-62zM176 455q-6 -40 -6 -77q0 -122 62 -211q81 -116 243 -116q164 0 291 118t149 286q4 33 5 63 q0 128 -75 223q-93 119 -257 119q-162 0 -274.5 -116.5t-137.5 -288.5z" />
<glyph unicode="c" horiz-adv-x="985" d="M88 455q29 195 172 330t330 135q211 0 301 -134l12 -20l-51 -43l-10 18q-100 117 -260 117t-284 -117.5t-146 -285.5q-5 -33 -5 -65q0 -125 71 -219q89 -118 249 -118q186 0 293 117l18 18l39 -43l-20 -20q-125 -133 -338 -133q-186 0 -293 135q-84 106 -84 249 q0 38 6 79z" />
<glyph unicode="d" horiz-adv-x="1150" d="M47 461q29 193 176.5 330t337.5 137q240 0 328 -226l129 916h61l-227 -1618h-61l30 217q-145 -225 -391 -225q-190 0 -300 136q-88 110 -88 258q0 37 5 75zM109 461q-4 -32 -5 -63q0 -128 76 -224q94 -119 260 -119q160 0 271.5 118t136.5 288q6 40 6 77q0 121 -61 211 q-80 118 -240 117q-166 0 -293.5 -118.5t-150.5 -286.5z" />
<glyph unicode="e" horiz-adv-x="1091" d="M96 444q27 193 168.5 326t331.5 133q182 0 315 -149v-2q81 -113 82 -232q0 -37 -8 -74l-6 -28h-823q-1 -16 -1 -32q0 -137 82 -229q91 -103 240 -104q195 0 305 84l39 -45q-139 -100 -352 -100q-184 0 -289 117q-90 99 -90 250q0 40 6 85zM164 477h762v18q0 143 -91 241 q-97 103 -247 103.5t-269.5 -103t-154.5 -259.5z" />
<glyph unicode="f" horiz-adv-x="671" d="M147 0l127 893h-124l6 47h125q2 14 9 75.5t13 94.5q14 102 41 170q59 147 192.5 241.5t288.5 96.5l-10 -62q-162 -4 -291 -120.5t-151 -278.5l-31 -217h258l-6 -47h-258l-127 -893h-62z" />
<glyph unicode="g" horiz-adv-x="1107" d="M111 -287l51 45q109 -133 272 -133q162 0 292 115t153 278l26 183q-127 -215 -385 -215q-188 0 -298 136q-87 108 -87 250q0 37 6 77q27 190 173.5 326t334.5 136q115 0 201 -57t123 -164l31 221h61l-125 -893q-27 -199 -176.5 -327.5t-337.5 -129t-315 151.5zM203 449 q-4 -33 -5 -64q0 -126 74 -220q92 -118 256 -118q160 0 271.5 117t136.5 285q5 37 5 72q0 122 -61 211q-79 116 -239 116q-164 0 -289.5 -116.5t-148.5 -282.5z" />
<glyph unicode="h" horiz-adv-x="942" d="M39 0l229 1618h62l-119 -840q53 57 144 88t175 31q131 0 204 -85q58 -68 58 -166q0 -25 -4 -52l-83 -594h-60l84 594q3 19 3 36q0 76 -50 135q-61 73 -160 73q-104 0 -211.5 -58.5t-122.5 -154.5l-88 -625h-61zM268 1618h62h-62z" />
<glyph unicode="i" horiz-adv-x="421" d="M98 0l129 915h62l-129 -915h-62zM279 1319q18 14 40 14q20 0 34 -14q10 -11 10 -27q0 -5 -1 -10q-2 -23 -19 -38t-38 -15q-23 0 -36 15q-12 13 -11 32q0 27 21 43z" />
<glyph unicode="j" horiz-adv-x="491" d="M-125 -459l8 62q61 0 112.5 43t83.5 109.5t50 129t27 119.5l129 911h61l-129 -911q-10 -76 -32.5 -148.5t-61.5 -146.5t-103.5 -120t-144.5 -48zM332 1312q18 15 40.5 15t35.5 -15q11 -13 10 -32v-6q-2 -20 -19.5 -35.5t-40.5 -15.5q-25 0 -37 14q-10 11 -11 27 q1 30 22 48z" />
<glyph unicode="k" horiz-adv-x="968" d="M27 0l229 1618h61l-172 -1217l603 519h79l-491 -433l342 -487h-80l-311 446l-154 -133l-45 -313h-61z" />
<glyph unicode="l" horiz-adv-x="397" d="M45 0l229 1618h62l-230 -1618h-61z" />
<glyph unicode="m" horiz-adv-x="1486" d="M86 0l123 885h59l-16 -121q61 61 145 93t158 32q164 0 236 -172q55 82 139 127t170 45q125 0 200 -88q62 -72 63 -170q0 -21 -3 -43l-82 -586h-59l81 586q3 19 3 37q0 77 -50 134q-61 71 -161 70q-104 0 -189.5 -64.5t-99.5 -162.5l-84 -602h-60l82 588q3 21 3 40 q0 75 -44 131q-55 71 -153 70q-109 0 -207 -59t-111 -152l-86 -618h-57z" />
<glyph unicode="n" horiz-adv-x="968" d="M113 0l125 893h59l-14 -115q53 59 147 89t172 30q127 0 202 -83q60 -67 60 -168q0 -25 -4 -52l-84 -594h-59l84 594q3 19 2 37q0 77 -49 135q-61 72 -160 72q-111 0 -216.5 -59.5t-117.5 -153.5l-88 -625h-59z" />
<glyph unicode="o" horiz-adv-x="1036" d="M82 453q27 195 168 332t327.5 137t288.5 -138q81 -109 82 -254q0 -38 -6 -77q-29 -197 -168 -329t-327.5 -132t-290.5 132q-80 103 -80 246q0 40 6 83zM143 453q-5 -37 -5 -71q0 -121 68 -212q87 -117 249 -117q160 0 280.5 117t143.5 283q5 35 4 68q0 126 -68 220 q-86 119 -246 119q-162 0 -282.5 -118.5t-143.5 -288.5z" />
<glyph unicode="p" horiz-adv-x="1159" d="M68 -442l192 1366h62l-31 -224q63 104 167.5 163t221.5 59q188 0 299 -138q89 -111 89 -258q0 -36 -5 -73q-29 -193 -176.5 -330t-337.5 -137q-236 0 -328 229l-92 -657h-61zM260 457q-6 -40 -6 -78q0 -122 61 -212q80 -118 242 -118q166 0 293 118t151 286q4 33 5 63 q0 129 -76 224q-94 118 -260 118q-160 0 -272.5 -115.5t-137.5 -285.5z" />
<glyph unicode="q" horiz-adv-x="1177" d="M170 453q27 195 174.5 332t339.5 137q250 0 326 -226l32 228h62l-193 -1366h-61l92 653q-70 -106 -172 -165.5t-217 -59.5q-190 0 -301 137q-88 109 -88 253q0 37 6 77zM231 453q-5 -34 -5 -67q0 -125 76 -219q95 -118 259 -118q160 0 273.5 117t138.5 287q6 40 5 76 q0 123 -63 212q-82 117 -241 117q-164 0 -292 -117.5t-151 -287.5z" />
<glyph unicode="r" horiz-adv-x="681" d="M68 0l127 918h61l-33 -234q182 227 416 234l-8 -62q-162 -4 -289 -122t-149 -279l-64 -455h-61z" />
<glyph unicode="s" horiz-adv-x="819" d="M66 133l57 35q33 -53 96.5 -85t132.5 -32q96 0 171 49.5t87 145.5q2 13 2 24q0 56 -41 90q-49 41 -123.5 58.5t-149.5 38t-122 71.5q-37 41 -37 106q0 17 2 36q18 125 110.5 194.5t217.5 69.5q182 0 266 -158l-57 -33q-68 127 -215 127q-98 0 -173 -49t-87 -145 q-2 -13 -2 -25q0 -56 40 -90q48 -41 123.5 -58.5t151.5 -37t123 -71.5q37 -41 37 -106q0 -17 -2 -36q-18 -127 -114 -196q-92 -67 -213 -66h-7q-84 0 -159.5 38.5t-114.5 104.5z" />
<glyph unicode="t" horiz-adv-x="649" d="M158 891l6 45h133l37 262h63l-37 -262h256l-6 -45h-256l-125 -891h-63l125 891h-133z" />
<glyph unicode="u" horiz-adv-x="901" d="M115 299l84 602h59l-84 -602q-4 -25 -4 -48q0 -76 42 -131q54 -73 153 -73q106 0 202.5 63.5t108.5 159.5l88 623h59l-125 -893h-59l14 115q-106 -127 -297 -127q-123 0 -191 90q-54 71 -54 167q0 26 4 54z" />
<glyph unicode="v" horiz-adv-x="933" d="M174 899h74l168 -784l389 784h74l-457 -899h-47z" />
<glyph unicode="w" horiz-adv-x="1310" d="M176 901h66l104 -792l342 645l164 -652l324 799h67l-377 -901h-51l-151 584l-314 -584h-53z" />
<glyph unicode="x" horiz-adv-x="925" d="M68 0l354 451l-229 450h79l197 -389l309 389h78l-354 -450l233 -451h-84l-198 389l-308 -389h-77z" />
<glyph unicode="y" horiz-adv-x="1007" d="M227 918h74l199 -834l407 834h76l-666 -1356h-73l211 428z" />
<glyph unicode="z" horiz-adv-x="901" d="M37 0l686 852h-533l9 53h647l-684 -852h530l-8 -53h-647z" />
<glyph unicode="~" horiz-adv-x="780" d="M172 1069q88 39 137 39q66 0 133 -31q18 -10 52 -10q41 0 84 20l36 -47q-63 -27 -120 -26q-45 0 -84 16q-57 25 -101 25q-45 0 -96 -29z" />
<glyph unicode="&#xa1;" horiz-adv-x="262" d="M10 -61l174 1249h68l-174 -1249h-68zM219 1536q8 47 51 47q20 0 32.5 -13.5t10.5 -33.5q-2 -18 -18 -32.5t-37 -14.5q-18 0 -29.5 14.5t-9.5 32.5z" />
<glyph unicode="&#xa2;" horiz-adv-x="929" d="M76 793q27 182 155.5 314t300.5 148l23 158h61l-22 -156q199 -6 283 -133l14 -20l-51 -43l-13 18q-92 106 -241 117l-113 -805q147 6 275 117l16 18l39 -43l-19 -20q-121 -127 -319 -133l-25 -166h-61l24 168q-168 16 -260 147.5t-67 313.5zM139.5 792.5 q-22.5 -155.5 54 -269t218.5 -130.5l112 801q-145 -18 -253.5 -132t-131 -269.5z" />
<glyph unicode="&#xa3;" horiz-adv-x="671" d="M-20 8l6 45q111 37 157 385q0 6 50 465h-109l8 47h105q2 33 10 88q14 96 35.5 176t62.5 159t98.5 132.5t143.5 88t194 36.5l-8 -61q-399 -8 -467 -484l-12 -135h262l-6 -47h-260q-6 -55 -14.5 -154.5t-16.5 -182.5t-18 -156q-41 -289 -142 -357h461l-6 -45h-534z" />
<glyph unicode="&#xa5;" horiz-adv-x="1343" d="M199 1456h77l330 -670l516 670h80l-573 -741l-8 -60h327l-8 -51h-328l-14 -112h328l-8 -52h-328l-62 -440h-67l61 440h-315l8 52h315l15 112h-316l9 51h315l8 60z" />
<glyph unicode="&#xa9;" horiz-adv-x="755" d="M94 1288.5q0 114.5 80 195.5t194.5 81t194.5 -81t80 -196q0 -113 -80 -192.5t-194.5 -79.5t-194.5 79t-80 193.5zM141 1288q0 -94 66.5 -160.5t161 -66.5t161 66.5t66.5 160.5t-66.5 162t-161 68t-161 -68t-66.5 -162zM223 1288.5q0 59.5 42 102.5t102 43q57 0 102 -41 l12 -15l-28 -24l-11 10q-31 31 -75.5 31t-75.5 -31t-31 -76q0 -43 31 -74.5t76 -31.5q43 0 75 32l11 11l30 -29l-16 -10q-41 -41 -100.5 -41t-101.5 42t-42 101.5z" />
<glyph unicode="&#xaa;" horiz-adv-x="1179" d="M111 453q27 190 173 325t337 135q233 0 354 -233l31 225h61l-127 -905h-61l30 225q-186 -233 -420 -233q-190 0 -298 134q-86 108 -86 252q1 37 6 75zM172 453q-4 -32 -4 -62q0 -125 75 -220q93 -118 257 -118q160 0 287.5 117t150.5 283q4 31 4 61q0 125 -77 220 q-95 118 -255 118q-164 0 -289.5 -117.5t-148.5 -281.5z" />
<glyph unicode="&#xab;" horiz-adv-x="626" d="M72 565v43l233 299v-69l-162 -252l162 -250v-70zM297 565v43l233 299v-69l-161 -252l161 -250v-70z" />
<glyph unicode="&#xad;" d="M74 588v43h497v-43h-497z" />
<glyph unicode="&#xae;" horiz-adv-x="755" d="M84 1282q0 117 83 201t200 84q121 0 201.5 -82t80.5 -203q0 -117 -83 -199t-199.5 -82t-199.5 82t-83 199zM133 1282q0 -96 68.5 -164.5t165 -68.5t166 69.5t69.5 163.5q0 96 -69.5 166t-166 70t-165 -70t-68.5 -166zM291 1137v293h84q35 0 58.5 -25t23.5 -59 q0 -57 -54 -78l66 -131h-43l-64 125h-32v-125h-39zM330 1303q8 -2 24 -3q66 0 66 46q0 18 -13.5 31.5t-31.5 13.5h-45v-88z" />
<glyph unicode="&#xb0;" horiz-adv-x="546" d="M115 1411q0 68 49 116t114.5 48t114.5 -48t49 -116q0 -66 -49 -114t-114.5 -48t-114.5 48t-49 114zM172 1411q0 -41 32 -72.5t75 -31.5t74.5 31.5t31.5 72.5t-31.5 73t-74.5 32t-75 -32t-32 -73z" />
<glyph unicode="&#xb2;" horiz-adv-x="1058" d="M-14 0l10 66l864 935q61 68 80 191q20 152 -71 259.5t-242 107.5q-147 0 -268 -106.5t-148 -260.5h-57q31 180 171 303t312 123q174 0 279.5 -125t80.5 -301q-12 -94 -73 -195q-47 -76 -404 -452l-454 -477h774l-11 -68h-843z" />
<glyph unicode="&#xb3;" horiz-adv-x="1245" d="M74 506h55q-20 -197 96.5 -333t304.5 -136q193 0 349.5 136t183.5 329q29 193 -87 330t-312 141l8 61q117 0 205 81t102 190q16 111 -51.5 189.5t-179.5 78.5q-109 0 -199 -78t-111 -190h-53q25 137 132.5 231t238.5 94q133 0 215 -95t63 -226q-31 -199 -223 -295 q168 -59 251 -197.5t58 -310.5q-29 -217 -205 -371.5t-393 -154.5q-213 0 -344 152.5t-104 373.5z" />
<glyph unicode="&#xb9;" horiz-adv-x="432" d="M147 0l220 1559h-162l10 59h217l-229 -1618h-56z" />
<glyph unicode="&#xba;" horiz-adv-x="1036" d="M82 453q27 195 168 332t327.5 137t288.5 -138q81 -109 82 -254q0 -38 -6 -77q-29 -197 -168 -329t-327.5 -132t-290.5 132q-80 103 -80 246q0 40 6 83zM143 453q-5 -37 -5 -71q0 -121 68 -212q87 -117 249 -117q160 0 280.5 117t143.5 283q5 35 4 68q0 126 -68 220 q-86 119 -246 119q-162 0 -282.5 -118.5t-143.5 -288.5z" />
<glyph unicode="&#xbb;" horiz-adv-x="626" d="M84 266v70l162 250l-162 252v69l233 -299v-43zM309 266v70l162 250l-162 252v69l234 -299v-43z" />
<glyph unicode="&#xbf;" horiz-adv-x="1011" d="M18 375q20 160 143.5 281.5t282.5 146.5l56 389h67l-65 -455q-154 -2 -275 -107.5t-141 -254.5q-20 -147 72 -255t239.5 -108t267 106.5t142.5 260.5h67q-27 -182 -169 -309t-318 -127t-286 127t-83 305zM526 1522q2 25 19.5 41t40.5 16q25 0 38 -15.5t9 -37.5 q-2 -20 -20.5 -35.5t-41.5 -15.5q-20 0 -33.5 14.5t-11.5 32.5z" />
<glyph unicode="&#xc0;" horiz-adv-x="1306" d="M-4 0l766 1618h14l311 -1618h-65l-72 387h-710l-179 -387h-65zM268 436h666l-189 1016zM670 1823l94 57l86 -164l-35 -30z" />
<glyph unicode="&#xc1;" horiz-adv-x="1306" d="M-4 0l766 1618h14l311 -1618h-65l-72 387h-710l-179 -387h-65zM268 436h666l-189 1016zM711 1716l129 164l80 -57l-183 -137z" />
<glyph unicode="&#xc2;" horiz-adv-x="1306" d="M-2 0l766 1618h16l310 -1618h-66l-70 387h-710l-181 -387h-65zM272 436h666l-188 1016zM537 1597l247 240h39l181 -240h-58l-151 181l-201 -181h-57z" />
<glyph unicode="&#xc3;" horiz-adv-x="1306" d="M2 0l768 1618h14l310 -1618h-66l-70 387h-710l-180 -387h-66zM276 436h666l-188 1016zM551 1665l2 55q106 51 164 52q51 0 126 -30t93 -30q63 0 127 41l-10 -63q-94 -35 -125 -35q-39 0 -108.5 30.5t-110.5 30.5q-72 0 -158 -51z" />
<glyph unicode="&#xc4;" horiz-adv-x="1329" d="M0 0l766 1618h16l310 -1618h-66l-72 387h-710l-178 -387h-66zM274 436h666l-188 1016zM502 1757q4 23 21.5 38t37.5 15q23 0 36 -15t9 -37.5t-21.5 -38t-39.5 -15.5q-18 0 -31.5 15t-11.5 38zM989 1757q10 53 62 53q23 0 36 -15t9 -37.5t-21.5 -38t-40.5 -15.5 q-20 0 -33.5 16.5t-11.5 36.5z" />
<glyph unicode="&#xc5;" horiz-adv-x="1318" d="M-23 0l768 1618h15l309 -1618h-65l-70 387h-711l-180 -387h-66zM252 436h666l-189 1016zM647 1964q8 66 63.5 113t121 47t106.5 -47t33 -113t-63.5 -113t-121 -47t-106.5 47t-33 113zM688 1964q-8 -49 23.5 -85t81 -36t89.5 36t48 85q6 49 -25 84t-80 35t-90 -35t-47 -84 z" />
<glyph unicode="&#xc6;" horiz-adv-x="1740" d="M-70 0l938 1618h930l-8 -51h-866l-103 -725h611l-7 -51h-610l-104 -740h866l-8 -51h-930l55 387h-477l-221 -387h-66zM246 436h454l144 1012z" />
<glyph unicode="&#xc7;" horiz-adv-x="1425" d="M88 805q47 342 324.5 583.5t619.5 241.5q94 0 233.5 -38t192.5 -89l-43 -47q-246 113 -391 113q-317 0 -572 -223.5t-300.5 -541t148.5 -541.5t509 -224q145 0 424 113l29 -50l-153 -59q-48 -18 -136 -39.5t-158 -23.5l-51 -105q84 -6 82 -84q-6 -37 -52 -65.5 t-132 -28.5l2 37q119 0 127 55q4 33 -24 47t-65 14h-10l94 130q-338 6 -541.5 245.5t-156.5 579.5z" />
<glyph unicode="&#xc8;" horiz-adv-x="1222" d="M6 0l230 1618h929l-8 -51h-866l-103 -725h611l-6 -51h-611l-104 -740h866l-6 -51h-932zM608 1823l94 57l86 -164l-34 -30z" />
<glyph unicode="&#xc9;" horiz-adv-x="1271" d="M31 0l227 1620h930l-6 -51h-867l-102 -727h610l-6 -49h-610l-105 -742h867l-8 -51h-930zM647 1698l131 164l82 -58l-186 -137z" />
<glyph unicode="&#xca;" horiz-adv-x="1222" d="M6 0l227 1618h930l-8 -51h-866l-101 -725h611l-8 -51h-611l-104 -740h866l-6 -51h-930zM500 1659l248 239h38l181 -239h-58l-151 180l-201 -180h-57z" />
<glyph unicode="&#xcb;" horiz-adv-x="1222" d="M12 0l228 1618h929l-8 -51h-866l-100 -725h610l-8 -51h-611l-104 -740h866l-6 -51h-930zM440 1757q4 23 21.5 38t38.5 15q23 0 36 -15t9 -37.5t-21.5 -38t-40.5 -15.5q-18 0 -31.5 15t-11.5 38zM928 1757q10 53 61 53q23 0 36 -15t9 -37.5t-21.5 -38t-39.5 -15.5 q-20 0 -33.5 16.5t-11.5 36.5z" />
<glyph unicode="&#xcc;" horiz-adv-x="415" d="M204 1872l84 51l74 -144l-29 -26zM51 0l230 1618h67l-229 -1618h-68z" />
<glyph unicode="&#xce;" horiz-adv-x="415" d="M13 1753l299 440h45l297 -440h-70l-250 366l-252 -366h-69zM51 0l230 1618h67l-229 -1618h-68z" />
<glyph unicode="&#xd1;" horiz-adv-x="1380" d="M4 0l227 1618l68 4l770 -1497l213 1511h59l-231 -1636h-51l-783 1511l-213 -1511h-59zM592 1665l2 55q106 51 164 52q51 0 125.5 -30t93.5 -30q63 0 127 41l-10 -63q-94 -35 -125 -35q-39 0 -108.5 30.5t-110.5 30.5q-72 0 -158 -51z" />
<glyph unicode="&#xd2;" horiz-adv-x="1712" d="M88 801q51 356 301 592.5t578 236.5q326 0 512 -236.5t135 -588.5q-49 -354 -301 -589.5t-577.5 -235.5t-511 234.5t-136.5 586.5zM154 805q-45 -326 123.5 -543t465.5 -217t527.5 216t275.5 540q47 326 -122 544t-468 218q-297 0 -526 -217t-276 -541zM856 1823l94 57 l84 -164l-35 -30z" />
<glyph unicode="&#xd3;" horiz-adv-x="1712" d="M88 801q51 356 301 592.5t578 236.5q326 0 512 -236.5t135 -588.5q-49 -354 -301 -589.5t-577.5 -235.5t-511 234.5t-136.5 586.5zM154 805q-45 -326 123.5 -543t465.5 -217t527.5 216t275.5 540q47 326 -122 544t-468 218q-297 0 -526 -217t-276 -541zM895 1716l131 164 l80 -57l-184 -137z" />
<glyph unicode="&#xd4;" horiz-adv-x="1712" d="M88 805q49 352 300 588.5t576.5 236.5t512 -236.5t137.5 -588.5q-51 -354 -303 -589.5t-577.5 -235.5t-511 235.5t-134.5 589.5zM154 805q-45 -326 122.5 -543t466.5 -217q297 0 526.5 217t276.5 543q45 324 -124 541t-466 217q-299 0 -528 -217t-274 -541zM725 1659 l250 239h39l178 -239h-57l-150 180l-203 -180h-57z" />
<glyph unicode="&#xd5;" horiz-adv-x="1712" d="M94 801q51 356 301 592.5t578 236.5q326 0 512 -236.5t135 -588.5q-49 -354 -301 -589.5t-577.5 -235.5t-511 234.5t-136.5 586.5zM160 805q-45 -326 124 -543t466 -217t527 216t275 540q47 326 -121.5 544t-467.5 218q-297 0 -526.5 -217t-276.5 -541zM717 1686l4 55 q102 51 164 51q51 0 124.5 -29.5t94.5 -29.5q66 0 125 41l-8 -64q-100 -35 -125 -35q-41 0 -109.5 31t-109.5 31q-74 0 -160 -51z" />
<glyph unicode="&#xd6;" horiz-adv-x="1714" d="M84 786q49 354 299 591t578 237q326 0 511 -236.5t136 -591.5q-49 -352 -301 -588.5t-578 -236.5t-510 236.5t-135 588.5zM150 786q-45 -324 122.5 -540.5t466.5 -216.5q297 0 526.5 217t276.5 540q45 328 -123 545t-467 217t-528 -217t-274 -545zM674 1710q4 23 22.5 39 t42.5 16q20 0 33.5 -16t9.5 -39q-2 -23 -20.5 -38t-36.5 -15q-57 0 -51 53zM1176 1710q4 23 21 39t38 16q25 0 38 -16t9 -38.5t-21.5 -38t-41.5 -15.5q-18 0 -31.5 15t-11.5 38z" />
<glyph unicode="&#xd7;" horiz-adv-x="626" d="M20 344l236 301l-150 299h74l119 -242l190 242h74l-233 -299l149 -301h-76l-120 242l-189 -242h-74z" />
<glyph unicode="&#xd8;" horiz-adv-x="1720" d="M106 805q49 352 301 588.5t578 236.5q207 0 365 -102l63 86h66l-86 -117q141 -111 205.5 -292t33.5 -400q-49 -354 -301 -589.5t-579 -235.5q-211 0 -373 106l-72 -100h-63l94 131q-137 111 -200 291t-32 397zM172 805q-27 -199 28.5 -364t178.5 -265l930 1292 q-141 94 -334 95q-297 0 -526.5 -217t-276.5 -541zM420 143q145 -98 342 -98q299 0 528.5 217t274.5 543q29 199 -28.5 364.5t-184.5 268.5z" />
<glyph unicode="&#xd9;" horiz-adv-x="1337" d="M49 518l156 1112h63l-153 -1087q-29 -207 96 -352.5t328 -145.5q205 0 369.5 145.5t193.5 352.5l153 1087h66l-154 -1087q-33 -231 -220 -397t-417 -166q-227 0 -370.5 155.5t-110.5 382.5zM672 1823l94 57l84 -164l-35 -30z" />
<glyph unicode="&#xda;" horiz-adv-x="1337" d="M49 518l156 1112h63l-153 -1087q-29 -207 96 -352.5t328 -145.5q205 0 369.5 145.5t193.5 352.5l153 1087h66l-154 -1087q-33 -231 -220 -397t-417 -166q-227 0 -370.5 155.5t-110.5 382.5zM711 1716l131 164l80 -57l-185 -137z" />
<glyph unicode="&#xdb;" horiz-adv-x="1337" d="M47 518l156 1112h63l-151 -1087q-29 -207 96 -352.5t328 -145.5q205 0 369.5 145.5t193.5 352.5l151 1087h66l-152 -1087q-33 -231 -220 -397t-419 -166q-227 0 -370.5 155.5t-110.5 382.5zM561 1659l250 239h39l178 -239h-57l-150 180l-203 -180h-57z" />
<glyph unicode="&#xdc;" horiz-adv-x="1349" d="M88 502l156 1110h63l-151 -1086q-29 -207 95 -352t328.5 -145t369.5 145t194 352l151 1086h64l-152 -1086q-35 -231 -221 -397t-416 -166q-227 0 -370.5 156t-110.5 383zM508 1656.5q2 22.5 20.5 38t41 15.5t35.5 -15.5t11 -37.5q-4 -23 -21 -38t-40 -15t-36 15t-11 37.5 zM1006 1657q2 23 20 38t41 15t36 -15.5t11 -38t-21.5 -37.5t-39.5 -15q-23 0 -37 15t-10 38z" />
<glyph unicode="&#xdd;" horiz-adv-x="1343" d="M184 1618h76l393 -754l607 754h75l-657 -821l-113 -797h-67l112 797zM711 1716l120 164l89 -57l-183 -137z" />
<glyph unicode="&#xde;" horiz-adv-x="1030" d="M-8 0l229 1618h64l-35 -242h225q231 0 371.5 -167t108 -400.5t-219 -399t-420.5 -165.5h-225l-35 -244h-63zM98 303h226q209 0 376.5 148.5t196.5 357.5t-96 357.5t-334 148.5h-225z" />
<glyph unicode="&#xe0;" horiz-adv-x="1146" d="M86 454.5q27 192.5 173.5 329t336.5 136.5q231 0 354 -236l31 227h61l-127 -911h-61l31 227q-184 -236 -420 -235q-188 0 -297 135t-82 327.5zM147.5 455q-22.5 -166 70.5 -283t257 -117q160 0 288 117t150.5 283t-71.5 283.5t-254 117.5q-164 0 -291 -117.5 t-149.5 -283.5zM483 1208l97 58l84 -164l-35 -31z" />
<glyph unicode="&#xe1;" horiz-adv-x="1157" d="M86 454.5q27 192.5 173.5 329t336.5 136.5q231 0 354 -236l31 227h61l-127 -911h-61l31 227q-184 -236 -420 -235q-188 0 -297 135t-82 327.5zM147.5 455q-22.5 -166 70.5 -283t257 -117q160 0 288 117t150.5 283t-71.5 283.5t-254 117.5q-164 0 -291 -117.5 t-149.5 -283.5zM586 1102l131 164l78 -58l-183 -137z" />
<glyph unicode="&#xe2;" horiz-adv-x="1179" d="M88 457q27 193 172.5 328t335.5 135q236 0 354 -234l33 225h61l-129 -911h-61l33 227q-184 -236 -420 -235q-190 0 -299 136t-80 329zM149.5 457q-22.5 -166 69.5 -284t256 -118q160 0 289 118t151.5 284t-72.5 283.5t-255 117.5q-164 0 -290 -117.5t-148.5 -283.5z M391 1012l248 239h39l180 -239h-57l-152 180l-200 -180h-58z" />
<glyph unicode="&#xe3;" horiz-adv-x="1105" d="M94 455q27 190 173.5 326.5t336.5 136.5q233 0 354 -234l31 225h62l-127 -909h-62l31 225q-186 -233 -420 -233q-188 0 -297 135t-82 328zM155.5 455q-22.5 -166 69.5 -284t256 -118q160 0 289 118t151.5 284t-71.5 283.5t-254 117.5q-164 0 -291 -117.5t-149.5 -283.5z M383 1092l8 59h486l-9 -59h-485z" />
<glyph unicode="&#xe4;" horiz-adv-x="1144" d="M90 455q29 193 175.5 328t334.5 135q233 0 354 -234l33 225h62l-129 -909h-62l33 227q-188 -236 -420 -235q-190 0 -299 136.5t-82 326.5zM151.5 455q-22.5 -166 70.5 -284t257 -118q160 0 288 118t150.5 284t-71.5 283.5t-254 117.5q-164 0 -291 -117.5t-149.5 -283.5z M365 1145q2 23 20 38t37 15q23 0 36 -15.5t11 -37.5q-4 -23 -21.5 -37t-39.5 -14q-18 0 -31.5 15.5t-11.5 35.5zM848 1145q2 23 21.5 38t39.5 15q23 0 36 -15.5t11 -37.5q-2 -20 -20 -35.5t-41 -15.5q-20 0 -34.5 15.5t-12.5 35.5z" />
<glyph unicode="&#xe5;" horiz-adv-x="1146" d="M65.5 456.5q26.5 192.5 173 329t336.5 136.5q233 0 355 -236l31 227h61l-127 -913h-61l30 227q-184 -236 -420 -235q-190 0 -297.5 136t-81 328.5zM127 457q-23 -166 69.5 -284t256.5 -118q160 0 288.5 118t151 284t-72.5 283.5t-255 117.5q-164 0 -289.5 -117.5 t-148.5 -283.5zM524 1403q8 66 63.5 114t121.5 48q63 0 104 -48.5t33 -113.5q-8 -63 -63.5 -111.5t-118.5 -48.5q-66 0 -107 48.5t-33 111.5zM565 1403q-8 -49 24 -84t81 -35t89 35t48 84q6 49 -24.5 84t-80 35t-90.5 -35t-47 -84z" />
<glyph unicode="&#xe6;" horiz-adv-x="1865" d="M90 453q27 190 173.5 325t336.5 135q233 0 354 -233l31 225h62l-29 -207q74 98 179.5 151.5t221.5 53.5q180 0 314 -149v-2q98 -133 77 -281q-2 -23 -10 -53h-821q-8 -156 79 -260.5t240 -104.5q193 0 306 84l38 -45q-139 -100 -352 -100q-141 0 -241.5 73.5 t-126.5 202.5q-186 -276 -453 -276q-190 0 -298 134t-81 327zM151.5 452.5q-22.5 -163.5 70.5 -281.5t257 -118q160 0 288 117t151 283q23 164 -72.5 281.5t-255.5 117.5q-164 0 -290 -118t-148.5 -281.5zM987 477h760q6 154 -89 258.5t-249 104.5q-152 0 -267.5 -104.5 t-154.5 -258.5z" />
<glyph unicode="&#xe7;" horiz-adv-x="968" d="M106 455q29 195 172.5 330t329.5 135q213 0 301 -134l15 -20l-52 -43l-12 18q-100 117 -260 117t-283.5 -117.5t-146.5 -285.5q-23 -166 67.5 -284t250 -118t292.5 117l17 18l39 -43l-19 -20q-125 -133 -338 -133q-186 0 -293 134t-80 329zM369 -281l2 29q49 0 86 17.5 t41 46.5q6 33 -23 46t-65 13h-11l66 121h31l-50 -96q33 -2 61 -21.5t21 -62.5q-6 -39 -55 -66t-104 -27z" />
<glyph unicode="&#xe8;" horiz-adv-x="1110" d="M70 444q29 195 170 327t331 132q182 0 316 -149l-2 -2q102 -137 84 -269q-4 -25 -8 -37l-7 -28h-823q-10 -158 81 -261.5t241 -103.5q195 0 303 84l39 -45q-137 -100 -353 -100q-180 0 -288 117q-115 124 -84 335zM139 477h762q6 156 -91 259.5t-246.5 103.5 t-269.5 -103.5t-155 -259.5zM483 1208l97 58l84 -164l-35 -31z" />
<glyph unicode="&#xe9;" horiz-adv-x="1103" d="M70 444q29 195 170 327t331 132q182 0 316 -149l-2 -2q102 -137 84 -269q-4 -25 -8 -37l-7 -28h-823q-10 -158 81 -261.5t241 -103.5q195 0 303 84l39 -45q-137 -100 -353 -100q-180 0 -288 117q-115 124 -84 335zM139 477h762q6 156 -91 259.5t-246.5 103.5 t-269.5 -103.5t-155 -259.5zM586 1102l131 164l78 -58l-185 -137z" />
<glyph unicode="&#xea;" horiz-adv-x="1091" d="M72 446q27 193 169 326t330 133q186 0 316 -149v-2q98 -133 78 -283l-4 -25l-7 -28h-823q-8 -160 82 -262.5t240 -102.5q195 0 305 84l39 -45q-139 -100 -353 -100q-188 0 -294.5 130.5t-77.5 323.5zM139 479h762q8 156 -90 259.5t-247.5 103.5t-269.5 -103.5 t-155 -259.5zM350 1012l248 239h39l180 -239h-57l-152 180l-200 -180h-58z" />
<glyph unicode="&#xeb;" horiz-adv-x="1148" d="M76 444q27 193 168 325t331 132q184 0 316 -147v-2q98 -137 76 -281l-2 -25l-7 -30h-823q-10 -158 81 -261.5t241 -103.5q190 0 305 86l37 -45q-137 -100 -350 -100q-184 0 -289 117q-115 124 -84 335zM143 477h762q6 156 -91 259.5t-246.5 103.5t-269.5 -103.5 t-155 -259.5zM348 1145q2 23 20.5 38t37.5 15q23 0 36 -15.5t11 -37.5q-4 -23 -21.5 -37t-40.5 -14q-18 0 -31.5 15.5t-11.5 35.5zM831 1145q2 23 20.5 38t41 15t36 -15.5t11.5 -37.5q-2 -20 -20.5 -35.5t-41 -15.5t-36 15.5t-11.5 35.5z" />
<glyph unicode="&#xec;" horiz-adv-x="378" d="M98 0l127 915h68l-127 -915h-68zM156 1208l94 58l86 -164l-35 -31z" />
<glyph unicode="&#xed;" horiz-adv-x="385" d="M98 0l127 915h68l-127 -915h-68zM197 1102l129 164l80 -58l-183 -137z" />
<glyph unicode="&#xee;" horiz-adv-x="466" d="M41 1012l250 239h39l178 -239h-57l-150 180l-203 -180h-57zM98 0l129 915h68l-129 -915h-68z" />
<glyph unicode="&#xef;" horiz-adv-x="466" d="M76 1145q4 23 21.5 38t37.5 15q23 0 37 -15.5t10 -38t-21.5 -36.5t-39.5 -14q-20 0 -33.5 15.5t-11.5 35.5zM102 0l129 915h68l-129 -915h-68zM397 1145q4 23 21.5 38t40 15t37 -15.5t10.5 -37.5q-2 -20 -20.5 -35.5t-41 -15.5t-36 15.5t-11.5 35.5z" />
<glyph unicode="&#xf1;" horiz-adv-x="933" d="M74 0l127 897h59l-16 -121q61 59 144 92t155 33q121 0 188.5 -89t48.5 -214l-84 -598h-59l84 598q14 102 -38 172t-148 70q-109 0 -204 -58.5t-110 -154.5l-88 -627h-59zM303 1051l2 55q106 51 164 51q51 0 126 -29.5t93 -29.5q66 0 125 41l-8 -64q-94 -35 -125 -35 q-39 0 -108.5 31t-110.5 31q-72 0 -158 -51z" />
<glyph unicode="&#xf2;" horiz-adv-x="1017" d="M57.5 454.5q28.5 196.5 170 335t327.5 138.5t288.5 -138.5t74 -335t-168 -329.5t-328 -133t-290.5 133t-73.5 329.5zM119 455q-23 -168 64 -284t249 -116q160 0 279.5 116t142.5 284q25 170 -62 289.5t-247 119.5q-162 0 -281.5 -119.5t-144.5 -289.5zM467 1208l96 58 l84 -164l-35 -31z" />
<glyph unicode="&#xf3;" horiz-adv-x="1040" d="M57.5 454.5q28.5 196.5 170 335t327.5 138.5t288.5 -138.5t74 -335t-168 -329.5t-328 -133t-290.5 133t-73.5 329.5zM119 455q-23 -168 64 -284t249 -116q160 0 279.5 116t142.5 284q25 170 -62 289.5t-247 119.5q-162 0 -281.5 -119.5t-144.5 -289.5zM553 1102l131 164 l78 -58l-184 -137z" />
<glyph unicode="&#xf4;" horiz-adv-x="1060" d="M57 453q29 199 169.5 337t328.5 138q186 0 288.5 -137.5t76.5 -333.5q-29 -197 -169.5 -331t-326.5 -134t-290 132t-77 329zM120.5 457q-22.5 -170 63.5 -286t248 -116q160 0 281 117t143 285q25 170 -62 289.5t-247 119.5t-282 -119.5t-144.5 -289.5zM350 1012l248 239 h39l180 -239h-57l-152 180l-200 -180h-58z" />
<glyph unicode="&#xf5;" horiz-adv-x="1034" d="M66 455q27 197 168 334t327.5 137t288.5 -137.5t76 -333.5q-29 -197 -168.5 -330t-327.5 -133q-186 0 -289.5 133t-74.5 330zM127 459q-25 -170 61 -288t250 -118q160 0 281 117t143 285q23 170 -64 289.5t-245 119.5q-160 0 -281.5 -118.5t-144.5 -286.5zM348 1104l8 59 h486l-8 -59h-486z" />
<glyph unicode="&#xf6;" horiz-adv-x="1058" d="M61 455q29 197 170.5 334t327.5 137t288.5 -137.5t74.5 -333.5q-27 -197 -166.5 -330t-327.5 -133q-186 0 -290 133t-77 330zM123 455q-23 -168 64 -285t249 -117q160 0 280 117t142 285q25 170 -61 289.5t-248 119.5q-160 0 -280.5 -119.5t-145.5 -289.5zM283 1145 q2 23 21.5 38t40 15t32.5 -15.5t10 -37.5q-2 -20 -19.5 -35.5t-39.5 -15.5q-18 0 -32.5 15.5t-12.5 35.5zM770 1145q2 23 19.5 38t37.5 15q23 0 36.5 -15.5t10.5 -37.5q-4 -23 -21 -37t-40 -14q-20 0 -33.5 14t-9.5 37z" />
<glyph unicode="&#xf8;" horiz-adv-x="1036" d="M80 453q29 195 169 332t326 137q117 0 203 -58l53 74h66l-76 -104q154 -137 119 -381q-29 -197 -168 -329t-326 -132q-119 0 -202 53l-29 -39h-63l49 70q-156 133 -121 377zM141 453q-29 -203 101 -322l497 680q-76 49 -172 49q-162 0 -282.5 -118.5t-143.5 -288.5z M283 100q72 -47 172 -47q160 0 279.5 117t142.5 283q29 209 -97 325z" />
<glyph unicode="&#xf9;" horiz-adv-x="917" d="M90 301l84 606h59l-83 -606q-16 -106 38 -179t150 -73q106 0 202.5 63.5t110.5 159.5l88 627h60l-127 -899h-60l17 115q-109 -127 -299 -127q-121 0 -189.5 91t-50.5 222zM406 1208l96 58l84 -164l-35 -31z" />
<glyph unicode="&#xfa;" horiz-adv-x="907" d="M90 301l84 606h59l-83 -606q-16 -106 38 -179t150 -73q106 0 202.5 63.5t110.5 159.5l88 627h60l-127 -899h-60l17 115q-109 -127 -299 -127q-121 0 -189.5 91t-50.5 222zM475 1102l131 164l76 -58l-180 -137z" />
<glyph unicode="&#xfb;" horiz-adv-x="890" d="M90 301l86 608h60l-86 -608q-14 -106 40 -179t150 -73q109 0 204 63.5t107 159.5l88 629h60l-127 -901h-60l17 115q-106 -127 -297 -127q-123 0 -191.5 91t-50.5 222zM268 1012l248 239h39l180 -239h-57l-152 180l-200 -180h-58z" />
<glyph unicode="&#xfc;" horiz-adv-x="888" d="M94 299l84 606h60l-84 -606q-16 -104 39 -178t151 -74q106 0 202.5 64.5t108.5 160.5l88 625h60l-127 -897h-60l17 115q-109 -127 -299 -127q-121 0 -189.5 90t-50.5 221zM240 1145q2 23 21.5 38t40 15t32.5 -15.5t10 -37.5q-2 -20 -19.5 -35.5t-39.5 -15.5 q-18 0 -32.5 15.5t-12.5 35.5zM723 1145q2 23 19.5 38t39.5 15q20 0 32.5 -15.5t10.5 -37.5q-2 -20 -19.5 -35.5t-39.5 -15.5q-20 0 -32.5 15.5t-10.5 35.5z" />
<glyph unicode="&#xfd;" horiz-adv-x="1007" d="M203 918h73l199 -834l408 834h75l-663 -1356h-74l209 428zM555 1102l129 164l80 -58l-186 -137z" />
<glyph unicode="&#xfe;" horiz-adv-x="1159" d="M33 -442l262 1857h61l-100 -715q66 106 169 164t220 58q190 0 300 -137.5t83 -331.5q-29 -193 -176 -330t-338 -137q-236 0 -328 229l-92 -657h-61zM225 453q-25 -170 56 -287t241 -117q166 0 294 118t151 286q23 170 -70.5 287.5t-259.5 117.5q-160 0 -273.5 -116.5 t-138.5 -288.5z" />
<glyph unicode="&#xff;" horiz-adv-x="1007" d="M207 918h74l200 -834l406 834h76l-664 -1356h-74l209 428zM336 1145q4 23 21.5 38t37.5 15q23 0 37 -15.5t10 -37.5q-2 -20 -20.5 -35.5t-40.5 -15.5q-20 0 -33.5 15.5t-11.5 35.5zM821 1145q10 53 62 53q20 0 35.5 -15.5t11.5 -37.5q-2 -20 -20.5 -35.5t-41 -15.5 t-36 14t-11.5 37z" />
<glyph unicode="&#x152;" horiz-adv-x="2531" d="M49 805q49 352 301 588.5t578 236.5q238 0 406.5 -131t224.5 -352l67 471h930l-8 -51h-867l-100 -725h610l-8 -51h-610l-105 -740h867l-6 -51h-930l65 463q-119 -221 -325.5 -352t-444.5 -131q-326 0 -510 235.5t-135 589.5zM115 805q-45 -326 123 -543t467 -217t528 217 t274 543q45 324 -122.5 541t-466.5 217q-297 0 -526.5 -217t-276.5 -541z" />
<glyph unicode="&#x153;" horiz-adv-x="1824" d="M61 453q27 195 168.5 332t327.5 137q147 0 244.5 -89.5t120.5 -230.5q63 133 184 214t266 81q184 0 316 -147v-2q98 -137 77 -279l-4 -25l-6 -30h-823q-8 -156 82 -259.5t239 -103.5q190 0 306 84l38 -43q-137 -100 -352 -100q-141 0 -246.5 81t-126.5 214 q-63 -133 -182 -214t-264 -81q-188 0 -291 132t-74 329zM123 453q-25 -166 62 -283t249 -117q160 0 281 117t143 283q23 170 -63 288.5t-246 118.5q-162 0 -282.5 -118.5t-143.5 -288.5zM940 475h762q6 154 -91.5 257.5t-247 103.5t-269 -103.5t-154.5 -257.5z" />
<glyph unicode="&#x178;" horiz-adv-x="1343" d="M188 1618h76l393 -754l607 754h75l-657 -821l-113 -797h-65l112 797zM481 1757q4 23 21.5 38t38.5 15q23 0 36 -15t9 -37.5t-21.5 -38t-40.5 -15.5q-18 0 -31.5 15t-11.5 38zM969 1757q10 53 61 53q23 0 36 -15t9 -37.5t-21.5 -38t-39.5 -15.5q-20 0 -33.5 16.5 t-11.5 36.5z" />
<glyph unicode="&#x2c6;" horiz-adv-x="925" d="M150 973l299 440h45l297 -440h-70l-250 366l-252 -366h-69z" />
<glyph unicode="&#x2dc;" horiz-adv-x="614" d="M-199 178q88 39 137 39q66 0 133 -31q18 -10 52 -10q41 0 84 20l36 -47q-63 -27 -120 -26q-45 0 -84 16q-57 25 -101 25q-45 0 -96 -29z" />
<glyph unicode="&#x2013;" horiz-adv-x="968" d="M176 588v43h676v-43h-676z" />
<glyph unicode="&#x2014;" horiz-adv-x="1486" d="M156 588v43h1187v-43h-1187z" />
<glyph unicode="&#x2018;" horiz-adv-x="372" d="M102 1559l84 51l74 -144l-29 -26z" />
<glyph unicode="&#x2019;" horiz-adv-x="206" d="M78 1618h72l-11 -244h-57z" />
<glyph unicode="&#x201c;" horiz-adv-x="495" d="M88 1618h92l60 -244h-72zM281 1618h90l59 -244h-72z" />
<glyph unicode="&#x201d;" horiz-adv-x="495" d="M47 1374l129 244h90l-147 -244h-72zM240 1374l125 244h92l-146 -244h-71z" />
<glyph unicode="&#x2022;" horiz-adv-x="284" d="M80 827q0 31 18.5 52.5t47 21.5t48 -20.5t19.5 -53.5q0 -27 -20.5 -47t-47 -20t-46 20t-19.5 47z" />
<glyph unicode="&#x2026;" horiz-adv-x="854" d="M647 53q0 25 15.5 42.5t38 17.5t38.5 -16.5t16 -43.5q0 -23 -17 -39t-38 -16q-23 0 -38 16t-15 39zM363 53q0 25 15.5 42.5t38 17.5t38.5 -16.5t16 -43.5q0 -23 -17 -39t-38 -16q-23 0 -38 16t-15 39zM78 53q0 25 15.5 42.5t38 17.5t38.5 -16.5t16 -43.5q0 -23 -17 -39 t-38 -16q-23 0 -38 16t-15 39z" />
<glyph unicode="&#x2039;" horiz-adv-x="405" d="M72 565v43l233 299v-69l-162 -252l162 -250v-70z" />
<glyph unicode="&#x203a;" horiz-adv-x="393" d="M84 266v70l162 250l-162 252v69l233 -299v-43z" />
<glyph unicode="&#x20ac;" horiz-adv-x="1310" d="M35 670l26 43h193q-2 41 4 92q10 51 14 69h-147l27 44h133q70 203 248 333.5t385 130.5q72 0 166 -27.5t137 -66.5l-41 -47q-182 80 -271 80q-180 0 -336.5 -113.5t-222.5 -289.5h484l-27 -44h-471q-4 -18 -14 -69q-6 -51 -5 -92h426l-26 -43h-395q23 -170 145.5 -275.5 t296.5 -105.5q100 0 293 80l30 -52q-227 -90 -331 -90q-201 0 -341.5 124t-158.5 319h-221z" />
<glyph unicode="&#x2122;" horiz-adv-x="1140" d="M139 1481v39h338v-39h-145v-432h-45v432h-148zM524 1049v471h33l176 -289l176 289h33v-471h-43v370l-166 -270l-164 270v-370h-45z" />
<glyph unicode="&#xe000;" horiz-adv-x="900" d="M0 900h900v-900h-900v900z" />
<glyph unicode="&#xfb01;" horiz-adv-x="884" d="M96 0l127 895h-125l6 47h125q4 25 11.5 83l11.5 89q14 104 41 172q61 147 196.5 242.5t290.5 97.5l-8 -61q-168 -6 -298 -122t-152 -280l-31 -221h454l-133 -942h-61l127 895h-393l-127 -895h-62z" />
<glyph unicode="&#xfb02;" horiz-adv-x="903" d="M145 0l127 895h-125l7 47h125q4 25 11 82l11 88q14 100 41 168q61 150 196.5 244t286.5 94h62l-230 -1618h-61l127 895h-389l-127 -895h-62zM340 942h389l86 612q-164 -2 -293 -118.5t-151 -278.5z" />
<glyph unicode="&#xfb03;" horiz-adv-x="1284" d="M47 0l127 891h-127l6 47h127l9.5 77.5t13.5 94.5q14 102 41 170q61 147 196 241.5t293 96.5l-10 -62q-166 -4 -297 -120.5t-154 -278.5l-30 -219h383q2 16 9 77.5t13 94.5q14 102 41 170q61 145 193.5 234.5t298.5 103.5l-11 -62q-166 -4 -298 -120.5t-154 -278.5 l-31 -219h459l-133 -938h-62l127 891h-397l-127 -891h-61l126 891h-382l-127 -891h-62z" />
<glyph unicode="&#xfb04;" horiz-adv-x="1327" d="M84 0l127 893h-127l6 47h127q4 25 11 82l12 88q14 102 41 170q59 147 194 241.5t295 96.5l-10 -62q-166 -4 -297 -120.5t-154 -278.5l-30 -217h383q2 14 9 75.5t13 94.5q14 102 41 170q61 147 198.5 242.5t293.5 95.5h61l-229 -1618h-62l127 893h-397l-127 -893h-62 l127 893h-383l-127 -893h-61zM723 940h397l86 614q-166 -2 -298 -118.5t-154 -278.5z" />
</font>
</defs>
</svg>
